<svg width="36" height="36" viewBox="0 0 36 36" fill="none" xmlns="http://www.w3.org/2000/svg">
<circle cx="18" cy="18" r="18" fill="#2A63A9"/>
<path d="M25.5239 19.6887C26.6814 14.4878 22.1246 9.76315 16.7733 10.6701C13.8682 8.86749 10 10.9045 10 14.3606C10 15.1644 10.2218 15.9169 10.6074 16.5655C9.5318 21.7783 14.1259 26.4351 19.4726 25.4662C23.2522 27.4646 27.4287 23.4791 25.5239 19.6887ZM20.437 22.8251C19.033 23.4025 16.7226 23.4058 15.3247 22.674C13.3314 21.6112 12.977 19.2185 14.6967 19.2185C15.9927 19.2185 15.5824 20.7295 16.8911 21.3455C17.4919 21.6231 18.7833 21.6518 19.5339 21.1457C20.2751 20.6496 20.2072 19.8691 19.8043 19.4962C18.7366 18.5106 15.6817 18.9022 14.2851 17.1768C13.6783 16.4283 13.5638 15.1078 14.3097 14.1502C15.6098 12.4774 19.4246 12.3755 21.065 13.6388C22.5795 14.8108 22.1706 16.3664 20.9484 16.3664C19.4786 16.3664 20.2511 14.4432 17.8782 14.4432C16.1579 14.4432 15.4812 15.6665 16.6927 16.2618C18.335 17.0776 22.5202 16.8052 22.5202 19.993C22.5169 21.3195 21.7037 22.3084 20.437 22.8251Z" fill="white"/>
</svg>
